G04 #@! TF.FileFunction,Copper,L1,Top,Signal*
%FSLAX46Y46*%
G04 Gerber Fmt 4.6, Leading zero omitted, Abs format (unit mm)*
G04 Created by KiCad (PCBNEW 4.0.6) date 12/30/17 02:29:20*
%MOMM*%
%LPD*%
G01*
G04 APERTURE LIST*
%ADD10C,0.100000*%
%ADD11O,1.727200X2.032000*%
%ADD12C,4.064000*%
%ADD13R,1.700000X1.700000*%
%ADD14O,1.700000X1.700000*%
%ADD15C,1.800000*%
%ADD16C,1.600000*%
%ADD17O,1.600000X1.600000*%
%ADD18C,2.000000*%
%ADD19C,1.000000*%
%ADD20C,0.400000*%
G04 APERTURE END LIST*
D10*
D11*
X138938000Y-123825000D03*
X141478000Y-123825000D03*
X144018000Y-123825000D03*
X146558000Y-123825000D03*
X149098000Y-123825000D03*
X151638000Y-123825000D03*
X154178000Y-123825000D03*
X156718000Y-123825000D03*
X161798000Y-123825000D03*
X164338000Y-123825000D03*
X166878000Y-123825000D03*
X169418000Y-123825000D03*
X171958000Y-123825000D03*
X174498000Y-123825000D03*
X129794000Y-75565000D03*
X132334000Y-75565000D03*
X134874000Y-75565000D03*
X137414000Y-75565000D03*
X139954000Y-75565000D03*
X142494000Y-75565000D03*
X145034000Y-75565000D03*
X147574000Y-75565000D03*
X150114000Y-75565000D03*
X152654000Y-75565000D03*
X156718000Y-75565000D03*
X159258000Y-75565000D03*
X161798000Y-75565000D03*
X164338000Y-75565000D03*
X166878000Y-75565000D03*
X169418000Y-75565000D03*
X171958000Y-75565000D03*
X174498000Y-75565000D03*
D12*
X124968000Y-123825000D03*
X177038000Y-118745000D03*
X126238000Y-75565000D03*
X177038000Y-90805000D03*
D13*
X175768000Y-104775000D03*
D14*
X175768000Y-107315000D03*
X175768000Y-109855000D03*
X175768000Y-112395000D03*
D15*
X132838000Y-86485000D03*
X133858000Y-88265000D03*
X130798000Y-86485000D03*
X131818000Y-88265000D03*
X128758000Y-86485000D03*
X129778000Y-88265000D03*
X126718000Y-86485000D03*
X127738000Y-88265000D03*
X134858000Y-93075000D03*
X137148000Y-93075000D03*
X123428000Y-93075000D03*
X125718000Y-93075000D03*
X127258000Y-111635000D03*
X126238000Y-109855000D03*
X129298000Y-111635000D03*
X128278000Y-109855000D03*
X131338000Y-111635000D03*
X130318000Y-109855000D03*
X133378000Y-111635000D03*
X132358000Y-109855000D03*
X125238000Y-105045000D03*
X122948000Y-105045000D03*
X136668000Y-105045000D03*
X134378000Y-105045000D03*
X160278000Y-111635000D03*
X159258000Y-109855000D03*
X162318000Y-111635000D03*
X161298000Y-109855000D03*
X164358000Y-111635000D03*
X163338000Y-109855000D03*
X166398000Y-111635000D03*
X165378000Y-109855000D03*
X158258000Y-105045000D03*
X155968000Y-105045000D03*
X169688000Y-105045000D03*
X167398000Y-105045000D03*
X165858000Y-86485000D03*
X166878000Y-88265000D03*
X163818000Y-86485000D03*
X164838000Y-88265000D03*
X161778000Y-86485000D03*
X162798000Y-88265000D03*
X159738000Y-86485000D03*
X160758000Y-88265000D03*
X167878000Y-93075000D03*
X170168000Y-93075000D03*
X156448000Y-93075000D03*
X158738000Y-93075000D03*
D13*
X113538000Y-76835000D03*
D14*
X113538000Y-79375000D03*
X113538000Y-81915000D03*
X113538000Y-84455000D03*
D16*
X114808000Y-113665000D03*
D17*
X114808000Y-106045000D03*
D16*
X131318000Y-97155000D03*
D17*
X123698000Y-97155000D03*
D16*
X133223000Y-97155000D03*
D17*
X140843000Y-97155000D03*
D16*
X133223000Y-100965000D03*
D17*
X140843000Y-100965000D03*
D16*
X131318000Y-100965000D03*
D17*
X123698000Y-100965000D03*
D16*
X161798000Y-100965000D03*
D17*
X169418000Y-100965000D03*
D16*
X159258000Y-100965000D03*
D17*
X151638000Y-100965000D03*
D16*
X159258000Y-98425000D03*
D17*
X151638000Y-98425000D03*
D16*
X161798000Y-98425000D03*
D17*
X169418000Y-98425000D03*
D18*
X117403000Y-100965000D03*
X112903000Y-100965000D03*
X117403000Y-94465000D03*
X112903000Y-94465000D03*
D19*
X168783000Y-120650000D03*
X178308000Y-109855000D03*
X142113000Y-93345000D03*
X146558000Y-110490000D03*
X149098000Y-87630000D03*
X144653000Y-104775000D03*
X147193000Y-93345000D03*
X151638000Y-110490000D03*
X139573000Y-104775000D03*
X139573000Y-93345000D03*
X151638000Y-87630000D03*
X147193000Y-104775000D03*
X173228000Y-120015000D03*
X165608000Y-107950000D03*
X144653000Y-93345000D03*
X149098000Y-110490000D03*
X146558000Y-87630000D03*
X142113000Y-104775000D03*
X161798000Y-94615000D03*
X151130000Y-81661000D03*
X152146000Y-84201000D03*
X154813000Y-102235000D03*
X164338000Y-93345000D03*
X172593000Y-89535000D03*
X172593000Y-93980000D03*
X175133000Y-78740000D03*
X126873000Y-97155000D03*
X142748000Y-82550000D03*
X145669000Y-96774000D03*
X147320000Y-90043000D03*
X144018000Y-82550000D03*
X142748000Y-99695000D03*
X145542000Y-90043000D03*
X119253000Y-119380000D03*
X133858000Y-78740000D03*
X165608000Y-80010000D03*
X149098000Y-118110000D03*
X131318000Y-79375000D03*
X163703000Y-80645000D03*
X161163000Y-118745000D03*
X147828000Y-117475000D03*
X129413000Y-80645000D03*
X161798000Y-81280000D03*
X163068000Y-118110000D03*
X127508000Y-81915000D03*
X159893000Y-81915000D03*
X164973000Y-117475000D03*
X146558000Y-116840000D03*
D20*
X161798000Y-100965000D02*
X161798000Y-104775000D01*
X149733000Y-107315000D02*
X146558000Y-110490000D01*
X159258000Y-107315000D02*
X149733000Y-107315000D01*
X161798000Y-104775000D02*
X159258000Y-107315000D01*
X146558000Y-86360000D02*
X145957998Y-86360000D01*
X145322998Y-86995000D02*
X144018000Y-86995000D01*
X145957998Y-86360000D02*
X145322998Y-86995000D01*
X159258000Y-98425000D02*
X161798000Y-98425000D01*
X178308000Y-109855000D02*
X178308000Y-99695000D01*
X178308000Y-99695000D02*
X175133000Y-96520000D01*
X175133000Y-96520000D02*
X163703000Y-96520000D01*
X163703000Y-96520000D02*
X161798000Y-98425000D01*
X168783000Y-120650000D02*
X170053000Y-121920000D01*
X170053000Y-121920000D02*
X173863000Y-121920000D01*
X173863000Y-121920000D02*
X174498000Y-121285000D01*
X174498000Y-121285000D02*
X174498000Y-119380000D01*
X174498000Y-119380000D02*
X173863000Y-118745000D01*
X173863000Y-118745000D02*
X173863000Y-116840000D01*
X173863000Y-116840000D02*
X175768000Y-114935000D01*
X175768000Y-114935000D02*
X177673000Y-114935000D01*
X177673000Y-114935000D02*
X178308000Y-114300000D01*
X178308000Y-114300000D02*
X178308000Y-109855000D01*
X161798000Y-98425000D02*
X161798000Y-100965000D01*
X159258000Y-100965000D02*
X161798000Y-100965000D01*
X159258000Y-98425000D02*
X159258000Y-100965000D01*
X142113000Y-93345000D02*
X142113000Y-88900000D01*
X142113000Y-88900000D02*
X144018000Y-86995000D01*
X147828000Y-86360000D02*
X149098000Y-87630000D01*
X146558000Y-86360000D02*
X147828000Y-86360000D01*
X144653000Y-104775000D02*
X144653000Y-107950000D01*
X144653000Y-108585000D02*
X146558000Y-110490000D01*
X144653000Y-107950000D02*
X144653000Y-108585000D01*
X148463000Y-95250000D02*
X148463000Y-100965000D01*
X151003000Y-89535000D02*
X151003000Y-92710000D01*
X151003000Y-92710000D02*
X148463000Y-95250000D01*
X147828000Y-101600000D02*
X144653000Y-104775000D01*
X149098000Y-87630000D02*
X151003000Y-89535000D01*
X148463000Y-100965000D02*
X147828000Y-101600000D01*
X147193000Y-93345000D02*
X147193000Y-97155000D01*
X147193000Y-97155000D02*
X139573000Y-104775000D01*
X139573000Y-104775000D02*
X139573000Y-106680000D01*
X140843000Y-107950000D02*
X140843000Y-111125000D01*
X139573000Y-106680000D02*
X140843000Y-107950000D01*
X142113000Y-112395000D02*
X149733000Y-112395000D01*
X142113000Y-112395000D02*
X140843000Y-111125000D01*
X151638000Y-110490000D02*
X149733000Y-112395000D01*
X143383000Y-86360000D02*
X144653000Y-86360000D01*
X144653000Y-86360000D02*
X145288000Y-85725000D01*
X139573000Y-93345000D02*
X139573000Y-90170000D01*
X149733000Y-85725000D02*
X151638000Y-87630000D01*
X145288000Y-85725000D02*
X149733000Y-85725000D01*
X139573000Y-90170000D02*
X143383000Y-86360000D01*
X147193000Y-104775000D02*
X149098000Y-102870000D01*
X151638000Y-93345000D02*
X151638000Y-87630000D01*
X149098000Y-95885000D02*
X151638000Y-93345000D01*
X149098000Y-102870000D02*
X149098000Y-95885000D01*
X146558000Y-87630000D02*
X144653000Y-87630000D01*
X142748000Y-91440000D02*
X144653000Y-93345000D01*
X142748000Y-89535000D02*
X142748000Y-91440000D01*
X144653000Y-87630000D02*
X142748000Y-89535000D01*
X171958000Y-107950000D02*
X165608000Y-107950000D01*
X173228000Y-109220000D02*
X171958000Y-107950000D01*
X173228000Y-120015000D02*
X173228000Y-109220000D01*
X151638000Y-107950000D02*
X149098000Y-110490000D01*
X165608000Y-107950000D02*
X151638000Y-107950000D01*
X142113000Y-108585000D02*
X142113000Y-109220000D01*
X142113000Y-109220000D02*
X144653000Y-111760000D01*
X144653000Y-111760000D02*
X147828000Y-111760000D01*
X147828000Y-111760000D02*
X149098000Y-110490000D01*
X142113000Y-104775000D02*
X142113000Y-108585000D01*
X147828000Y-94615000D02*
X147828000Y-99060000D01*
X147828000Y-99060000D02*
X147193000Y-99695000D01*
X146558000Y-87630000D02*
X150368000Y-91440000D01*
X147193000Y-99695000D02*
X142113000Y-104775000D01*
X150368000Y-92075000D02*
X147828000Y-94615000D01*
X150368000Y-91440000D02*
X150368000Y-92075000D01*
X153543000Y-84455000D02*
X153543000Y-84074000D01*
X154143002Y-89535000D02*
X153543000Y-88934998D01*
X153543000Y-88934998D02*
X153543000Y-84455000D01*
X154813000Y-90170000D02*
X154178000Y-89535000D01*
X159893000Y-90170000D02*
X154813000Y-90170000D01*
X160528000Y-90805000D02*
X159893000Y-90170000D01*
X160528000Y-93345000D02*
X160528000Y-90805000D01*
X161798000Y-94615000D02*
X160528000Y-93345000D01*
X154178000Y-89535000D02*
X154143002Y-89535000D01*
X153543000Y-84074000D02*
X151130000Y-81661000D01*
X152908000Y-84963000D02*
X152146000Y-84201000D01*
X152908000Y-100330000D02*
X152908000Y-85725000D01*
X154813000Y-102235000D02*
X152908000Y-100330000D01*
X152908000Y-85725000D02*
X152908000Y-84963000D01*
X166878000Y-90805000D02*
X164338000Y-93345000D01*
X171323000Y-90805000D02*
X166878000Y-90805000D01*
X172593000Y-89535000D02*
X171323000Y-90805000D01*
X172593000Y-93980000D02*
X173863000Y-92710000D01*
X173863000Y-92710000D02*
X173863000Y-89535000D01*
X173863000Y-89535000D02*
X175133000Y-88265000D01*
X175133000Y-88265000D02*
X175133000Y-78740000D01*
X135763000Y-89535000D02*
X135763000Y-87630000D01*
X141351000Y-82550000D02*
X142748000Y-82550000D01*
X137668000Y-86233000D02*
X141351000Y-82550000D01*
X137160000Y-86233000D02*
X137668000Y-86233000D01*
X135763000Y-87630000D02*
X137160000Y-86233000D01*
X132588000Y-91440000D02*
X133858000Y-91440000D01*
X133858000Y-91440000D02*
X135763000Y-89535000D01*
X126873000Y-97155000D02*
X132588000Y-91440000D01*
X146269002Y-96173998D02*
X146269002Y-95342002D01*
X145669000Y-96774000D02*
X146269002Y-96173998D01*
X147320000Y-90043000D02*
X147320000Y-91821000D01*
X147320000Y-91821000D02*
X146269002Y-92871998D01*
X146269002Y-92871998D02*
X146269002Y-95342002D01*
X146269002Y-95342002D02*
X146269002Y-95377000D01*
X144018000Y-82550000D02*
X144018000Y-84709000D01*
X144018000Y-84709000D02*
X144018000Y-84455000D01*
X137148000Y-93075000D02*
X137148000Y-91579000D01*
X137148000Y-91579000D02*
X144018000Y-84709000D01*
X144145000Y-95758000D02*
X144145000Y-98298000D01*
X145669000Y-94234000D02*
X144145000Y-95758000D01*
X145542000Y-90043000D02*
X145542000Y-92964000D01*
X145542000Y-92964000D02*
X145669000Y-93091000D01*
X145669000Y-93091000D02*
X145669000Y-94234000D01*
X144145000Y-98298000D02*
X142748000Y-99695000D01*
X117348000Y-114935000D02*
X117348000Y-117475000D01*
X117348000Y-117475000D02*
X119253000Y-119380000D01*
X117348000Y-104775000D02*
X119888000Y-102235000D01*
X119888000Y-102235000D02*
X119888000Y-100965000D01*
X119888000Y-93980000D02*
X119888000Y-100965000D01*
X133858000Y-78740000D02*
X133223000Y-78105000D01*
X119253000Y-78105000D02*
X117348000Y-80010000D01*
X133223000Y-78105000D02*
X119253000Y-78105000D01*
X117348000Y-80010000D02*
X117348000Y-91440000D01*
X117348000Y-91440000D02*
X119888000Y-93980000D01*
X117348000Y-104775000D02*
X117348000Y-114935000D01*
X117348000Y-114935000D02*
X117348000Y-114900002D01*
X133858000Y-78740000D02*
X164338000Y-78740000D01*
X164338000Y-78740000D02*
X165608000Y-80010000D01*
X149098000Y-118110000D02*
X149098000Y-117475000D01*
X149608736Y-116964264D02*
X150878736Y-116964264D01*
X149098000Y-117475000D02*
X149608736Y-116964264D01*
X150878736Y-116964264D02*
X152024472Y-118110000D01*
X117983000Y-114935000D02*
X117983000Y-116205000D01*
X117983000Y-114935000D02*
X117983000Y-105410000D01*
X120523000Y-96520000D02*
X120523000Y-101600000D01*
X117983000Y-90839998D02*
X120523000Y-93379998D01*
X120523000Y-96520000D02*
X120523000Y-93379998D01*
X118017998Y-105410000D02*
X120523000Y-102904998D01*
X120523000Y-102904998D02*
X120523000Y-101600000D01*
X117983000Y-105410000D02*
X118017998Y-105410000D01*
X117983000Y-116205000D02*
X121793000Y-120015000D01*
X117983000Y-90839998D02*
X117948002Y-90839998D01*
X117948002Y-90839998D02*
X117983000Y-90839998D01*
X121793000Y-120015000D02*
X147193000Y-120015000D01*
X149098000Y-118110000D02*
X147193000Y-120015000D01*
X152024472Y-118110000D02*
X160528000Y-118110000D01*
X117983000Y-90839998D02*
X117983000Y-80645000D01*
X119253000Y-79375000D02*
X117983000Y-80645000D01*
X119253000Y-79375000D02*
X131318000Y-79375000D01*
X131318000Y-79375000D02*
X131953000Y-80010000D01*
X162433000Y-79375000D02*
X163703000Y-80645000D01*
X135128000Y-79375000D02*
X162433000Y-79375000D01*
X134493000Y-80010000D02*
X135128000Y-79375000D01*
X131953000Y-80010000D02*
X134493000Y-80010000D01*
X160528000Y-118110000D02*
X161163000Y-118745000D01*
X152273000Y-117475000D02*
X152238002Y-117475000D01*
X152238002Y-117475000D02*
X150968002Y-116205000D01*
X147828000Y-114935000D02*
X148463000Y-114300000D01*
X148463000Y-114300000D02*
X150333002Y-114300000D01*
X150333002Y-114300000D02*
X150968002Y-114935000D01*
X150968002Y-114935000D02*
X150968002Y-116205000D01*
X147828000Y-117475000D02*
X147828000Y-114935000D01*
X118618000Y-114935000D02*
X118618000Y-115570000D01*
X118618000Y-114935000D02*
X118618000Y-106045000D01*
X121158000Y-95885000D02*
X121158000Y-102235000D01*
X118618000Y-90204998D02*
X121158000Y-92744998D01*
X121158000Y-95885000D02*
X121158000Y-92744998D01*
X121158000Y-103505000D02*
X121158000Y-102235000D01*
X118618000Y-106045000D02*
X121158000Y-103505000D01*
X118618000Y-115570000D02*
X121793000Y-118745000D01*
X118618000Y-90204998D02*
X118583002Y-90204998D01*
X118583002Y-90204998D02*
X118618000Y-90204998D01*
X121793000Y-118745000D02*
X146558000Y-118745000D01*
X146558000Y-118745000D02*
X147828000Y-117475000D01*
X118618000Y-90204998D02*
X118618000Y-81280000D01*
X128778000Y-80010000D02*
X119888000Y-80010000D01*
X119888000Y-80010000D02*
X118618000Y-81280000D01*
X128778000Y-80010000D02*
X129413000Y-80645000D01*
X129413000Y-80645000D02*
X135128000Y-80645000D01*
X160528000Y-80010000D02*
X161798000Y-81280000D01*
X135763000Y-80010000D02*
X160528000Y-80010000D01*
X135128000Y-80645000D02*
X135763000Y-80010000D01*
X152273000Y-117475000D02*
X162433000Y-117475000D01*
X162433000Y-117475000D02*
X163068000Y-118110000D01*
X146558000Y-116840000D02*
X146558000Y-114300000D01*
X151638000Y-114300000D02*
X151638000Y-115570000D01*
X151003000Y-113665000D02*
X151638000Y-114300000D01*
X147193000Y-113665000D02*
X151003000Y-113665000D01*
X146558000Y-114300000D02*
X147193000Y-113665000D01*
X119253000Y-114935000D02*
X122428000Y-118110000D01*
X146558000Y-116840000D02*
X145923000Y-117475000D01*
X119253000Y-106680000D02*
X121793000Y-104140000D01*
X121793000Y-104140000D02*
X121793000Y-102870000D01*
X121793000Y-95250000D02*
X121793000Y-92109998D01*
X121793000Y-92109998D02*
X119253000Y-89569998D01*
X121793000Y-95250000D02*
X121793000Y-102870000D01*
X119253000Y-114935000D02*
X119253000Y-106680000D01*
X145288000Y-118110000D02*
X145923000Y-117475000D01*
X122428000Y-118110000D02*
X145288000Y-118110000D01*
X119253000Y-89569998D02*
X119218002Y-89569998D01*
X119218002Y-89569998D02*
X119253000Y-89569998D01*
X119253000Y-89569998D02*
X119253000Y-81915000D01*
X126238000Y-80645000D02*
X127508000Y-81915000D01*
X120523000Y-80645000D02*
X119253000Y-81915000D01*
X126238000Y-80645000D02*
X120523000Y-80645000D01*
X135128000Y-81915000D02*
X127508000Y-81915000D01*
X136398000Y-80645000D02*
X135128000Y-81915000D01*
X158623000Y-80645000D02*
X136398000Y-80645000D01*
X159893000Y-81915000D02*
X158623000Y-80645000D01*
X164973000Y-117475000D02*
X164338000Y-116840000D01*
X151638000Y-115570000D02*
X152908000Y-116840000D01*
X164338000Y-116840000D02*
X152908000Y-116840000D01*
M02*
