M48
;DRILL file {KiCad 4.0.6} date 01/16/18 14:37:10
;FORMAT={-:-/ absolute / metric / decimal}
FMAT,2
METRIC,TZ
T1C0.600
T2C0.900
T3C1.016
T4C3.048
T5C1.800
T6C3.250
%
G90
G05
M71
T1
X139.573Y-93.345
X139.573Y-104.775
X142.113Y-93.345
X142.113Y-104.775
X144.653Y-93.345
X144.653Y-104.775
X146.558Y-87.63
X146.558Y-110.49
X147.193Y-104.775
X149.098Y-87.63
X149.098Y-110.49
X151.638Y-87.63
X151.638Y-110.49
X173.228Y-120.015
T2
X122.948Y-105.045
X123.428Y-93.075
X125.238Y-105.045
X125.718Y-93.075
X126.238Y-109.855
X126.718Y-86.485
X127.258Y-111.635
X127.738Y-88.265
X128.278Y-109.855
X128.758Y-86.485
X129.298Y-111.635
X129.778Y-88.265
X130.318Y-109.855
X130.798Y-86.485
X131.338Y-111.635
X131.818Y-88.265
X132.358Y-109.855
X132.838Y-86.485
X133.378Y-111.635
X133.858Y-88.265
X134.378Y-105.045
X134.858Y-93.075
X136.668Y-105.045
X137.148Y-93.075
X155.968Y-105.045
X156.448Y-93.075
X158.258Y-105.045
X158.738Y-93.075
X159.258Y-109.855
X159.738Y-86.485
X160.278Y-111.635
X160.758Y-88.265
X161.298Y-109.855
X161.778Y-86.485
X162.318Y-111.635
X162.798Y-88.265
X163.338Y-109.855
X163.818Y-86.485
X164.358Y-111.635
X164.838Y-88.265
X165.378Y-109.855
X165.858Y-86.485
X166.398Y-111.635
X166.878Y-88.265
X167.398Y-105.045
X167.878Y-93.075
X169.688Y-105.045
X170.168Y-93.075
T3
X129.794Y-75.565
X132.334Y-75.565
X134.874Y-75.565
X137.414Y-75.565
X138.938Y-123.825
X139.954Y-75.565
X141.478Y-123.825
X142.494Y-75.565
X144.018Y-123.825
X145.034Y-75.565
X146.558Y-123.825
X147.574Y-75.565
X149.098Y-123.825
X150.114Y-75.565
X151.638Y-123.825
X152.654Y-75.565
X154.178Y-123.825
X156.718Y-75.565
X156.718Y-123.825
X159.258Y-75.565
X161.798Y-75.565
X161.798Y-123.825
X164.338Y-75.565
X164.338Y-123.825
X166.878Y-75.565
X166.878Y-123.825
X169.418Y-75.565
X169.418Y-123.825
X171.958Y-75.565
X171.958Y-123.825
X174.498Y-75.565
X174.498Y-123.825
T4
X124.968Y-123.825
X126.238Y-75.565
X177.038Y-90.805
X177.038Y-118.745
T5
X121.678Y-110.615
X122.158Y-87.505
X137.938Y-110.615
X138.418Y-87.505
X154.698Y-110.615
X155.178Y-87.505
X170.958Y-110.615
X171.438Y-87.505
T6
X123.458Y-114.175
X123.938Y-83.945
X136.158Y-114.175
X136.638Y-83.945
X156.478Y-114.175
X156.958Y-83.945
X169.178Y-114.175
X169.658Y-83.945
T0
M30
